<svg version="1" xmlns="http://www.w3.org/2000/svg" width="682.667" height="682.667" viewBox="0 0 512.000000 512.000000"><path d="M211.7 63.7c.3 1.6 5.2 24.2 10.8 50.3l10.1 47.5 36.1.3c33.8.2 36.2.1 36.7-1.5 1-3.4 20.6-96.6 20.6-97.9 0-1.2-9.5-1.4-57.5-1.4H211l.7 2.7zM233 194.5V212h72v-35h-72v17.5zM66 263.6c0 45.7.3 57.5 1.3 57.2.6-.3 23.4-5.2 50.4-10.9l49.3-10.4V227l-2.2-.5c-8.5-2-96.4-20.5-97.5-20.5-1.1 0-1.3 10.3-1.3 57.6zM182 263v36h35v-72h-35v36zM255 250.5L242.5 263l12.8 12.8 12.7 12.7 12.7-12.7 12.8-12.8-12.5-12.5c-6.9-6.9-12.7-12.5-13-12.5-.3 0-6.1 5.6-13 12.5zM298 293.5L272.5 319l12.8 12.7 12.7 12.8 25.5-25.5 25.5-25.5-12.8-12.8-12.7-12.7-25.5 25.5zM334.2 329.3c-13.8 13.8-25.2 25.5-25.2 25.9 0 .7 53.6 83.7 55.1 85.3.6.6 15.8-13.9 41.4-39.5 31.7-31.7 40.2-40.7 39.2-41.6-1.1-1.1-84.4-55.4-85-55.4-.1 0-11.6 11.4-25.5 25.3z"/></svg>